<svg width="16" height="16" viewBox="0 0 16 16" fill="none"
  xmlns="http://www.w3.org/2000/svg">
  <path d="M14.75 3C14.75 2.44772 14.3023 2 13.75 2L1.75 2C1.19771 2 0.75 2.44772 0.75 3C0.75 3.55228 1.19771 4 1.75 4L13.75 4C14.3023 4 14.75 3.55229 14.75 3Z" fill="currentColor"/>
  <path d="M12.5 7C12.5 6.58579 12.1642 6.25 11.75 6.25L3.75 6.25C3.33579 6.25 3 6.58579 3 7C3 7.41421 3.33579 7.75 3.75 7.75L11.0929 7.75C11.4903 7.57416 11.9208 7.45962 12.3726 7.41838C12.453 7.29887 12.5 7.15492 12.5 7Z" fill="currentColor"/>
  <path d="M8.65134 11.5H5.75C5.47386 11.5 5.25 11.2761 5.25 11C5.25 10.7239 5.47386 10.5 5.75 10.5H8.77415C8.69393 10.82 8.65134 11.1551 8.65134 11.5C8.65134 11.4999 8.65134 11.5001 8.65134 11.5Z" fill="currentColor"/>
  <path d="M13.25 9.50001C13.25 9.22387 13.0261 9.00001 12.75 9.00001C12.4738 9.00001 12.25 9.22387 12.25 9.50001V11H10.75C10.4738 11 10.25 11.2239 10.25 11.5C10.25 11.7762 10.4738 12 10.75 12H12.25V13.5C12.25 13.7762 12.4738 14 12.75 14C13.0261 14 13.25 13.7762 13.25 13.5V12H14.75C15.0261 12 15.25 11.7762 15.25 11.5C15.25 11.2239 15.0261 11 14.75 11H13.25V9.50001Z" fill="currentColor"/>
  <path d="M13.25 9.50001C13.25 9.22387 13.0261 9.00001 12.75 9.00001C12.4738 9.00001 12.25 9.22387 12.25 9.50001V11H10.75C10.4738 11 10.25 11.2239 10.25 11.5C10.25 11.7762 10.4738 12 10.75 12H12.25V13.5C12.25 13.7762 12.4738 14 12.75 14C13.0261 14 13.25 13.7762 13.25 13.5V12H14.75C15.0261 12 15.25 11.7762 15.25 11.5C15.25 11.2239 15.0261 11 14.75 11H13.25V9.50001Z" fill="currentColor"/>
</svg>
