<svg width="15" height="16" viewBox="0 0 15 16" fill="none" xmlns="http://www.w3.org/2000/svg">
  <path fill-rule="evenodd" clip-rule="evenodd"
    d="M15 11C15 11.2761 14.7761 11.5 14.5 11.5C14.2239 11.5 14 11.2761 14 11L14 8.40039L10.4657 8.40039L11.7829 9.71755C11.9391 9.87376 11.9391 10.127 11.7829 10.2832C11.6267 10.4394 11.3734 10.4394 11.2172 10.2832L9.21718 8.28323C9.14217 8.20822 9.10002 8.10648 9.10002 8.00039C9.10002 7.8943 9.14217 7.79256 9.21718 7.71755L11.2172 5.71755C11.3734 5.56134 11.6267 5.56134 11.7829 5.71755C11.9391 5.87376 11.9391 6.12702 11.7829 6.28323L10.4657 7.60039L14 7.60039L14 5C14 4.72386 14.2239 4.5 14.5 4.5C14.7761 4.5 15 4.72386 15 5L15 11ZM1 11C1 11.2761 0.776142 11.5 0.5 11.5C0.223858 11.5 -9.78516e-09 11.2761 -2.18557e-08 11L-2.84124e-07 5C-2.96195e-07 4.72386 0.223858 4.5 0.5 4.5C0.776142 4.5 1 4.72386 1 5L1 7.60039L4.53434 7.60039L3.21718 6.28323C3.06097 6.12702 3.06097 5.87376 3.21718 5.71755C3.37339 5.56134 3.62666 5.56134 3.78287 5.71755L5.78287 7.71755C5.85788 7.79256 5.90002 7.8943 5.90002 8.00039C5.90002 8.10648 5.85788 8.20822 5.78287 8.28323L3.78287 10.2832C3.62666 10.4394 3.37339 10.4394 3.21718 10.2832C3.06097 10.127 3.06097 9.87376 3.21718 9.71755L4.53434 8.40039L1 8.40039L1 11Z"
    fill="currentColor" />
</svg>
