<svg width="15" height="16" viewBox="0 0 15 16" fill="none" xmlns="http://www.w3.org/2000/svg">
  <g>
    <path fill-rule="evenodd" clip-rule="evenodd"
      d="M0.5 4.5C0.223858 4.5 0 4.72386 0 5V11C0 11.2761 0.223858 11.5 0.5 11.5H14.5C14.7761 11.5 15 11.2761 15 11V5C15 4.72386 14.7761 4.5 14.5 4.5H0.5ZM1 10.5V5.5H2.075V8C2.075 8.23472 2.26528 8.425 2.5 8.425C2.73472 8.425 2.925 8.23472 2.925 8V5.5H4.075V7C4.075 7.23472 4.26528 7.425 4.5 7.425C4.73472 7.425 4.925 7.23472 4.925 7V5.5H6.075V7C6.075 7.23472 6.26528 7.425 6.5 7.425C6.73472 7.425 6.925 7.23472 6.925 7V5.5H8.075V8C8.075 8.23472 8.26528 8.425 8.5 8.425C8.73472 8.425 8.925 8.23472 8.925 8V5.5H10.075V7C10.075 7.23472 10.2653 7.425 10.5 7.425C10.7347 7.425 10.925 7.23472 10.925 7V5.5H12.075V7C12.075 7.23472 12.2653 7.425 12.5 7.425C12.7347 7.425 12.925 7.23472 12.925 7V5.5H14V10.5H1Z"
      fill="currentColor" />
  </g>
</svg>
